# xmcd CD database file
#
# Track frame offsets:
#	150
#	8362
#	16395
#	35502
#	43512
#	58912
#	80142
#	111860
#	130425
#	137032
#	168025
#	217122
#	229897
#	237395
#	250845
#	266392
#	281297
#	287955
#	299855
#	312277
#
# Disc length: 4459 seconds
#
# Revision: 3
# Processed by: cddbd v1.5.2PL0 Copyright (c) Steve Scherf et al.
# Submitted via: CDex 1.51
#
DISCID=2d116914
DTITLE=Bernstein - Leonard Bernstein - Vol.05
DYEAR=1900
DGENRE=Classique
TTITLE0=Prelude, Fugue and Riffs for solo clarinet and Jazz Ensemble - I. Prelude for the Brass [Columbia Jazz Combo]
TTITLE1=Prelude, Fugue and Riffs for solo clarinet and Jazz Ensemble - II. Fugue for the Saxes [Benny Goodman, 1963]
TTITLE2=Prelude, Fugue and Riffs for solo clarinet and Jazz Ensemble - III. Riffs for Everyone
TTITLE3=On the Town (Tree dance episodes) - I. The Great Lover  [New York Philharmonic, 1963]
TTITLE4=On the Town (Tree dance episodes) - II. Lonly Town: Pas de deux
TTITLE5=On the Town (Tree dance episodes) - III. Time Square - 1944
TTITLE6=Serenade for solo violin, string, harp and percussion - I. Phaedrus - Pausanias  [New York Philharmonic, 1965]
TTITLE7=Serenade for solo violin, string, harp and percussion - II. Aristophanes  [Zino Francescatti, violon]
TTITLE8=Serenade for solo violin, string, harp and percussion - III. Eryximachus
TTITLE9=Serenade for solo violin, string, harp and percussion - IV. Agathon
TTITLE10=Serenade for solo violin, string, harp and percussion - V. Socrates - Alcibiades
TTITLE11=Fancy Free - I. Enter Three Sailors  [Clumbia Symphony Orchestra, 1956]
TTITLE12=Fancy Free - II. Scene at the Bar
TTITLE13=Fancy Free - III. Enter two Girls
TTITLE14=Fancy Free - IV. Pas de deux
TTITLE15=Fancy Free - V. Competition Scene
TTITLE16=Fancy Free - Three Dance Variations - VI. Variation 1 (Galop)
TTITLE17=Fancy Free - Three Dance Variations - VII. Variation 2 (Waltz)
TTITLE18=Fancy Free - Three Dance Variations - VIII. Variation 3 (Danzon)
TTITLE19=Fancy Free - IX. Finale
EXTD=
EXTT0=
EXTT1=
EXTT2=
EXTT3=
EXTT4=
EXTT5=
EXTT6=
EXTT7=
EXTT8=
EXTT9=
EXTT10=
EXTT11=
EXTT12=
EXTT13=
EXTT14=
EXTT15=
EXTT16=
EXTT17=
EXTT18=
EXTT19=
PLAYORDER=
